<svg xmlns="http://www.w3.org/2000/svg" xmlns:xlink="http://www.w3.org/1999/xlink" width="168" zoomAndPan="magnify" viewBox="0 0 126 74.999997" height="100" preserveAspectRatio="xMidYMid meet" version="1.0"><defs><g/><clipPath id="6b41349ceb"><path d="M 0 0.503906 L 126 0.503906 L 126 74.753906 L 0 74.753906 Z M 0 0.503906 " clip-rule="nonzero"/></clipPath></defs><g clip-path="url(#6b41349ceb)"><path fill="#000000" d="M 119.117188 0.550781 L 52.207031 0.507812 L 52.199219 0.507812 C 49.339844 0.507812 46.835938 1.65625 44.957031 3.828125 L 23.976562 28.066406 C 15.027344 27.859375 3.730469 30.253906 0.238281 37.726562 C 0.144531 37.933594 0.09375 38.160156 0.09375 38.382812 L 0.09375 57.101562 C 0.09375 60.832031 3.140625 63.863281 6.878906 63.863281 L 15.304688 63.863281 C 17.410156 70.175781 23.386719 74.746094 30.417969 74.746094 C 37.445312 74.746094 43.421875 70.179688 45.527344 63.863281 L 83.601562 63.863281 C 85.703125 70.175781 91.679688 74.746094 98.710938 74.746094 C 105.738281 74.746094 111.71875 70.179688 113.820312 63.863281 L 119.117188 63.863281 C 122.859375 63.863281 125.902344 60.832031 125.902344 57.101562 L 125.902344 7.3125 C 125.902344 3.582031 122.859375 0.550781 119.113281 0.546875 Z M 24.613281 31.210938 C 25.085938 31.226562 25.550781 31.03125 25.863281 30.667969 L 47.332031 5.863281 C 48.613281 4.378906 50.253906 3.628906 52.203125 3.628906 L 52.207031 3.628906 L 119.117188 3.667969 C 121.136719 3.667969 122.777344 5.304688 122.777344 7.3125 L 122.777344 53.722656 L 113.769531 53.722656 C 111.617188 47.492188 105.683594 43.003906 98.714844 43.003906 C 91.742188 43.003906 85.808594 47.492188 83.65625 53.722656 L 45.476562 53.722656 C 43.324219 47.492188 37.386719 43.003906 30.417969 43.003906 C 23.449219 43.003906 17.515625 47.492188 15.363281 53.722656 L 3.226562 53.722656 L 3.226562 41.609375 L 10.765625 41.609375 C 13.613281 41.609375 15.929688 39.296875 15.929688 36.460938 L 15.929688 31.722656 C 18.589844 31.269531 21.519531 31.082031 24.609375 31.203125 Z M 12.796875 32.425781 L 12.796875 36.464844 C 12.796875 37.582031 11.886719 38.492188 10.765625 38.492188 L 3.371094 38.492188 C 4.925781 35.777344 8.308594 33.667969 12.796875 32.425781 Z M 6.878906 60.746094 C 4.863281 60.746094 3.226562 59.113281 3.226562 57.101562 L 3.226562 56.847656 L 14.628906 56.847656 C 14.542969 57.515625 14.492188 58.191406 14.492188 58.878906 C 14.492188 59.511719 14.535156 60.132812 14.609375 60.746094 Z M 30.417969 71.625 C 23.363281 71.625 17.625 65.90625 17.625 58.878906 C 17.625 51.847656 23.363281 46.128906 30.417969 46.128906 C 37.46875 46.128906 43.207031 51.847656 43.207031 58.878906 C 43.207031 65.90625 37.46875 71.625 30.417969 71.625 Z M 46.226562 60.746094 C 46.300781 60.132812 46.339844 59.507812 46.339844 58.878906 C 46.339844 58.1875 46.292969 57.511719 46.207031 56.84375 L 82.925781 56.84375 C 82.839844 57.511719 82.789062 58.1875 82.789062 58.878906 C 82.789062 59.507812 82.832031 60.132812 82.90625 60.746094 Z M 98.710938 71.625 C 91.65625 71.625 85.921875 65.90625 85.921875 58.878906 C 85.921875 51.847656 91.65625 46.128906 98.710938 46.128906 C 105.761719 46.128906 111.5 51.847656 111.5 58.878906 C 111.5 65.90625 105.761719 71.625 98.710938 71.625 Z M 119.121094 60.746094 L 114.519531 60.746094 C 114.59375 60.132812 114.636719 59.507812 114.636719 58.878906 C 114.636719 58.1875 114.585938 57.511719 114.5 56.84375 L 122.777344 56.84375 L 122.777344 57.101562 C 122.777344 59.109375 121.136719 60.742188 119.121094 60.742188 Z M 30.417969 49.972656 C 25.492188 49.972656 21.480469 53.964844 21.480469 58.878906 C 21.480469 63.789062 25.488281 67.78125 30.417969 67.78125 C 35.34375 67.78125 39.351562 63.785156 39.351562 58.878906 C 39.351562 53.96875 35.34375 49.972656 30.417969 49.972656 Z M 30.417969 64.660156 C 27.214844 64.660156 24.613281 62.066406 24.613281 58.878906 C 24.613281 55.6875 27.214844 53.09375 30.417969 53.09375 C 33.617188 53.09375 36.21875 55.6875 36.21875 58.878906 C 36.21875 62.066406 33.617188 64.660156 30.417969 64.660156 Z M 98.710938 49.972656 C 93.785156 49.972656 89.777344 53.96875 89.777344 58.878906 C 89.777344 63.785156 93.785156 67.78125 98.710938 67.78125 C 103.636719 67.78125 107.644531 63.785156 107.644531 58.878906 C 107.644531 53.96875 103.636719 49.972656 98.710938 49.972656 Z M 98.710938 64.660156 C 95.511719 64.660156 92.90625 62.066406 92.90625 58.878906 C 92.90625 55.6875 95.511719 53.09375 98.710938 53.09375 C 101.910156 53.09375 104.511719 55.6875 104.511719 58.878906 C 104.511719 62.066406 101.910156 64.660156 98.710938 64.660156 Z M 33.136719 31.210938 L 71.460938 31.210938 C 72.324219 31.210938 73.027344 30.511719 73.027344 29.652344 L 73.027344 9.484375 C 73.027344 8.621094 72.324219 7.921875 71.460938 7.921875 L 50.480469 7.921875 C 50.023438 7.921875 49.585938 8.121094 49.289062 8.46875 L 31.945312 28.636719 C 31.550781 29.097656 31.457031 29.75 31.710938 30.304688 C 31.96875 30.859375 32.523438 31.210938 33.132812 31.210938 Z M 51.203125 11.042969 L 69.894531 11.042969 L 69.894531 28.089844 L 36.542969 28.089844 Z M 73.027344 38.507812 C 73.027344 39.371094 72.328125 40.070312 71.460938 40.070312 L 63.421875 40.070312 C 62.558594 40.070312 61.855469 39.371094 61.855469 38.507812 C 61.855469 37.648438 62.558594 36.949219 63.421875 36.949219 L 71.460938 36.949219 C 72.328125 36.949219 73.027344 37.648438 73.027344 38.507812 Z M 73.027344 38.507812 " fill-opacity="1" fill-rule="nonzero"/></g><g fill="#ffffff" fill-opacity="1"><g transform="translate(78.329205, 17.473108)"><g><path d="M 6.25 0 L 1.34375 0 C 1.175781 0 1.054688 -0.0351562 0.984375 -0.109375 C 0.910156 -0.179688 0.875 -0.296875 0.875 -0.453125 L 0.875 -8.734375 C 0.875 -8.890625 0.910156 -9.003906 0.984375 -9.078125 C 1.054688 -9.148438 1.175781 -9.1875 1.34375 -9.1875 L 5.40625 -9.1875 C 6.238281 -9.1875 6.851562 -9.023438 7.25 -8.703125 C 7.65625 -8.390625 7.859375 -7.898438 7.859375 -7.234375 L 7.859375 -6.625 C 7.859375 -6.269531 7.796875 -5.976562 7.671875 -5.75 C 7.554688 -5.519531 7.367188 -5.351562 7.109375 -5.25 C 7.648438 -5.195312 8.050781 -5.007812 8.3125 -4.6875 C 8.582031 -4.363281 8.71875 -3.890625 8.71875 -3.265625 L 8.71875 -2.09375 C 8.71875 -1.375 8.515625 -0.84375 8.109375 -0.5 C 7.703125 -0.164062 7.082031 0 6.25 0 Z M 3.75 -7.015625 L 3.75 -5.640625 L 4.84375 -5.640625 C 5 -5.640625 5.117188 -5.679688 5.203125 -5.765625 C 5.285156 -5.847656 5.328125 -5.976562 5.328125 -6.15625 L 5.328125 -6.515625 C 5.328125 -6.679688 5.285156 -6.804688 5.203125 -6.890625 C 5.117188 -6.972656 5 -7.015625 4.84375 -7.015625 Z M 3.75 -3.671875 L 3.75 -2.171875 L 5.40625 -2.171875 C 5.570312 -2.171875 5.691406 -2.210938 5.765625 -2.296875 C 5.847656 -2.378906 5.890625 -2.507812 5.890625 -2.6875 L 5.890625 -3.171875 C 5.890625 -3.347656 5.847656 -3.472656 5.765625 -3.546875 C 5.691406 -3.628906 5.570312 -3.671875 5.40625 -3.671875 Z M 3.75 -3.671875 "/></g></g></g><g fill="#ffffff" fill-opacity="1"><g transform="translate(87.58149, 17.473108)"><g><path d="M 8.703125 -2.40625 C 8.703125 -2.019531 8.644531 -1.664062 8.53125 -1.34375 C 8.414062 -1.03125 8.210938 -0.757812 7.921875 -0.53125 C 7.628906 -0.300781 7.226562 -0.125 6.71875 0 C 6.207031 0.125 5.554688 0.1875 4.765625 0.1875 C 3.972656 0.1875 3.320312 0.125 2.8125 0 C 2.300781 -0.125 1.894531 -0.300781 1.59375 -0.53125 C 1.300781 -0.757812 1.097656 -1.03125 0.984375 -1.34375 C 0.867188 -1.664062 0.8125 -2.019531 0.8125 -2.40625 L 0.8125 -8.734375 C 0.8125 -8.890625 0.847656 -9.003906 0.921875 -9.078125 C 0.992188 -9.148438 1.113281 -9.1875 1.28125 -9.1875 L 3.28125 -9.1875 C 3.4375 -9.1875 3.550781 -9.148438 3.625 -9.078125 C 3.695312 -9.003906 3.734375 -8.890625 3.734375 -8.734375 L 3.734375 -2.90625 C 3.734375 -2.738281 3.796875 -2.597656 3.921875 -2.484375 C 4.054688 -2.367188 4.34375 -2.3125 4.78125 -2.3125 C 5.238281 -2.3125 5.53125 -2.367188 5.65625 -2.484375 C 5.78125 -2.597656 5.84375 -2.738281 5.84375 -2.90625 L 5.84375 -8.734375 C 5.84375 -8.890625 5.878906 -9.003906 5.953125 -9.078125 C 6.023438 -9.148438 6.144531 -9.1875 6.3125 -9.1875 L 8.25 -9.1875 C 8.40625 -9.1875 8.519531 -9.148438 8.59375 -9.078125 C 8.664062 -9.003906 8.703125 -8.890625 8.703125 -8.734375 Z M 8.703125 -2.40625 "/></g></g></g><g fill="#ffffff" fill-opacity="1"><g transform="translate(97.101772, 17.473108)"><g><path d="M 7.84375 0 L 1.34375 0 C 1.175781 0 1.054688 -0.0351562 0.984375 -0.109375 C 0.910156 -0.179688 0.875 -0.296875 0.875 -0.453125 L 0.875 -8.734375 C 0.875 -8.890625 0.910156 -9.003906 0.984375 -9.078125 C 1.054688 -9.148438 1.175781 -9.1875 1.34375 -9.1875 L 3.3125 -9.1875 C 3.476562 -9.1875 3.597656 -9.148438 3.671875 -9.078125 C 3.742188 -9.003906 3.78125 -8.890625 3.78125 -8.734375 L 3.78125 -2.40625 L 5.53125 -2.40625 L 5.53125 -4.484375 C 5.53125 -4.640625 5.566406 -4.753906 5.640625 -4.828125 C 5.710938 -4.898438 5.828125 -4.9375 5.984375 -4.9375 L 7.84375 -4.9375 C 8 -4.9375 8.113281 -4.898438 8.1875 -4.828125 C 8.257812 -4.753906 8.296875 -4.640625 8.296875 -4.484375 L 8.296875 -0.453125 C 8.296875 -0.296875 8.257812 -0.179688 8.1875 -0.109375 C 8.113281 -0.0351562 8 0 7.84375 0 Z M 7.84375 0 "/></g></g></g><g fill="#ffffff" fill-opacity="1"><g transform="translate(105.971205, 17.473108)"><g><path d="M 3.3125 0 L 1.34375 0 C 1.175781 0 1.054688 -0.0351562 0.984375 -0.109375 C 0.910156 -0.179688 0.875 -0.296875 0.875 -0.453125 L 0.875 -8.734375 C 0.875 -8.890625 0.910156 -9.003906 0.984375 -9.078125 C 1.054688 -9.148438 1.175781 -9.1875 1.34375 -9.1875 L 3.3125 -9.1875 C 3.476562 -9.1875 3.597656 -9.148438 3.671875 -9.078125 C 3.742188 -9.003906 3.78125 -8.890625 3.78125 -8.734375 L 3.78125 -5.796875 L 4.296875 -5.796875 L 5.609375 -8.765625 C 5.660156 -8.921875 5.738281 -9.03125 5.84375 -9.09375 C 5.945312 -9.15625 6.082031 -9.1875 6.25 -9.1875 L 8.203125 -9.1875 C 8.347656 -9.1875 8.445312 -9.148438 8.5 -9.078125 C 8.550781 -9.003906 8.546875 -8.898438 8.484375 -8.765625 L 7.1875 -5.796875 C 7.664062 -5.765625 8.046875 -5.59375 8.328125 -5.28125 C 8.609375 -4.976562 8.75 -4.570312 8.75 -4.0625 L 8.75 -0.453125 C 8.75 -0.296875 8.710938 -0.179688 8.640625 -0.109375 C 8.578125 -0.0351562 8.460938 0 8.296875 0 L 6.328125 0 C 6.171875 0 6.054688 -0.0351562 5.984375 -0.109375 C 5.910156 -0.179688 5.875 -0.296875 5.875 -0.453125 L 5.875 -2.953125 C 5.875 -3.085938 5.835938 -3.191406 5.765625 -3.265625 C 5.703125 -3.347656 5.601562 -3.390625 5.46875 -3.390625 L 3.78125 -3.390625 L 3.78125 -0.453125 C 3.78125 -0.296875 3.742188 -0.179688 3.671875 -0.109375 C 3.597656 -0.0351562 3.476562 0 3.3125 0 Z M 3.3125 0 "/></g></g></g><g fill="#ffffff" fill-opacity="1"><g transform="translate(115.501077, 17.473108)"><g/></g></g><g fill="#ffffff" fill-opacity="1"><g transform="translate(74.368268, 28.996203)"><g><path d="M 2.796875 0 L 1.15625 0 C 1.019531 0 0.921875 -0.03125 0.859375 -0.09375 C 0.796875 -0.15625 0.765625 -0.253906 0.765625 -0.390625 L 0.765625 -7.53125 C 0.765625 -7.664062 0.796875 -7.765625 0.859375 -7.828125 C 0.921875 -7.890625 1.019531 -7.921875 1.15625 -7.921875 L 2.921875 -7.921875 C 3.046875 -7.921875 3.144531 -7.894531 3.21875 -7.84375 C 3.289062 -7.789062 3.363281 -7.707031 3.4375 -7.59375 L 4.421875 -5.796875 C 4.460938 -5.734375 4.492188 -5.6875 4.515625 -5.65625 C 4.535156 -5.625 4.570312 -5.609375 4.625 -5.609375 L 4.71875 -5.609375 C 4.757812 -5.609375 4.789062 -5.625 4.8125 -5.65625 C 4.84375 -5.6875 4.878906 -5.734375 4.921875 -5.796875 L 5.890625 -7.59375 C 5.960938 -7.707031 6.035156 -7.789062 6.109375 -7.84375 C 6.179688 -7.894531 6.28125 -7.921875 6.40625 -7.921875 L 8.1875 -7.921875 C 8.320312 -7.921875 8.421875 -7.890625 8.484375 -7.828125 C 8.546875 -7.765625 8.578125 -7.664062 8.578125 -7.53125 L 8.578125 -0.390625 C 8.578125 -0.253906 8.546875 -0.15625 8.484375 -0.09375 C 8.421875 -0.03125 8.320312 0 8.1875 0 L 6.484375 0 C 6.347656 0 6.25 -0.03125 6.1875 -0.09375 C 6.125 -0.15625 6.09375 -0.253906 6.09375 -0.390625 L 6.09375 -4.265625 L 5.4375 -3.0625 C 5.375 -2.9375 5.296875 -2.847656 5.203125 -2.796875 C 5.117188 -2.742188 5.003906 -2.71875 4.859375 -2.71875 L 4.421875 -2.71875 C 4.285156 -2.71875 4.171875 -2.742188 4.078125 -2.796875 C 3.984375 -2.847656 3.90625 -2.9375 3.84375 -3.0625 L 3.1875 -4.265625 L 3.1875 -0.390625 C 3.1875 -0.253906 3.15625 -0.15625 3.09375 -0.09375 C 3.03125 -0.03125 2.929688 0 2.796875 0 Z M 2.796875 0 "/></g></g></g><g fill="#ffffff" fill-opacity="1"><g transform="translate(83.700672, 28.996203)"><g><path d="M 7.46875 -2.078125 C 7.46875 -1.742188 7.414062 -1.4375 7.3125 -1.15625 C 7.21875 -0.882812 7.039062 -0.648438 6.78125 -0.453125 C 6.53125 -0.265625 6.179688 -0.113281 5.734375 0 C 5.296875 0.113281 4.738281 0.171875 4.0625 0.171875 C 3.375 0.171875 2.804688 0.113281 2.359375 0 C 1.910156 -0.113281 1.5625 -0.265625 1.3125 -0.453125 C 1.0625 -0.648438 0.882812 -0.882812 0.78125 -1.15625 C 0.6875 -1.4375 0.640625 -1.742188 0.640625 -2.078125 L 0.640625 -5.828125 C 0.640625 -6.171875 0.6875 -6.476562 0.78125 -6.75 C 0.882812 -7.019531 1.0625 -7.253906 1.3125 -7.453125 C 1.5625 -7.648438 1.910156 -7.800781 2.359375 -7.90625 C 2.804688 -8.019531 3.375 -8.078125 4.0625 -8.078125 C 4.738281 -8.078125 5.296875 -8.019531 5.734375 -7.90625 C 6.179688 -7.800781 6.53125 -7.648438 6.78125 -7.453125 C 7.039062 -7.253906 7.21875 -7.019531 7.3125 -6.75 C 7.414062 -6.476562 7.46875 -6.171875 7.46875 -5.828125 Z M 3.140625 -2.46875 C 3.140625 -2.320312 3.191406 -2.195312 3.296875 -2.09375 C 3.410156 -2 3.664062 -1.953125 4.0625 -1.953125 C 4.457031 -1.953125 4.707031 -2 4.8125 -2.09375 C 4.925781 -2.195312 4.984375 -2.320312 4.984375 -2.46875 L 4.984375 -5.4375 C 4.984375 -5.570312 4.925781 -5.6875 4.8125 -5.78125 C 4.707031 -5.882812 4.457031 -5.9375 4.0625 -5.9375 C 3.664062 -5.9375 3.410156 -5.882812 3.296875 -5.78125 C 3.191406 -5.6875 3.140625 -5.570312 3.140625 -5.4375 Z M 3.140625 -2.46875 "/></g></g></g><g fill="#ffffff" fill-opacity="1"><g transform="translate(91.801944, 28.996203)"><g><path d="M 5.4375 0 L 2.578125 0 C 2.441406 0 2.328125 -0.0234375 2.234375 -0.078125 C 2.140625 -0.128906 2.070312 -0.222656 2.03125 -0.359375 L 0.953125 -3.0625 C 0.878906 -3.21875 0.820312 -3.351562 0.78125 -3.46875 C 0.738281 -3.59375 0.703125 -3.710938 0.671875 -3.828125 C 0.640625 -3.941406 0.617188 -4.054688 0.609375 -4.171875 C 0.597656 -4.296875 0.59375 -4.445312 0.59375 -4.625 L 0.59375 -7.53125 C 0.59375 -7.664062 0.625 -7.765625 0.6875 -7.828125 C 0.75 -7.890625 0.847656 -7.921875 0.984375 -7.921875 L 2.734375 -7.921875 C 2.878906 -7.921875 2.988281 -7.890625 3.0625 -7.828125 C 3.132812 -7.765625 3.171875 -7.664062 3.171875 -7.53125 L 3.171875 -4.484375 C 3.171875 -4.410156 3.175781 -4.335938 3.1875 -4.265625 C 3.207031 -4.191406 3.226562 -4.113281 3.25 -4.03125 L 3.765625 -2.5 C 3.796875 -2.425781 3.820312 -2.375 3.84375 -2.34375 C 3.875 -2.320312 3.921875 -2.3125 3.984375 -2.3125 L 4.109375 -2.3125 C 4.160156 -2.3125 4.203125 -2.320312 4.234375 -2.34375 C 4.265625 -2.375 4.289062 -2.425781 4.3125 -2.5 L 4.828125 -4.046875 C 4.859375 -4.128906 4.878906 -4.207031 4.890625 -4.28125 C 4.910156 -4.351562 4.921875 -4.425781 4.921875 -4.5 L 4.921875 -7.53125 C 4.921875 -7.664062 4.953125 -7.765625 5.015625 -7.828125 C 5.078125 -7.890625 5.175781 -7.921875 5.3125 -7.921875 L 7.046875 -7.921875 C 7.179688 -7.921875 7.28125 -7.890625 7.34375 -7.828125 C 7.40625 -7.765625 7.4375 -7.664062 7.4375 -7.53125 L 7.4375 -4.625 C 7.4375 -4.445312 7.429688 -4.296875 7.421875 -4.171875 C 7.410156 -4.054688 7.390625 -3.941406 7.359375 -3.828125 C 7.328125 -3.710938 7.289062 -3.59375 7.25 -3.46875 C 7.207031 -3.351562 7.148438 -3.21875 7.078125 -3.0625 L 6 -0.359375 C 5.945312 -0.222656 5.875 -0.128906 5.78125 -0.078125 C 5.695312 -0.0234375 5.582031 0 5.4375 0 Z M 5.4375 0 "/></g></g></g><g fill="#ffffff" fill-opacity="1"><g transform="translate(99.826266, 28.996203)"><g><path d="M 6.265625 0 L 1.15625 0 C 1.019531 0 0.921875 -0.03125 0.859375 -0.09375 C 0.796875 -0.15625 0.765625 -0.253906 0.765625 -0.390625 L 0.765625 -7.53125 C 0.765625 -7.664062 0.796875 -7.765625 0.859375 -7.828125 C 0.921875 -7.890625 1.019531 -7.921875 1.15625 -7.921875 L 6.265625 -7.921875 C 6.398438 -7.921875 6.5 -7.890625 6.5625 -7.828125 C 6.625 -7.765625 6.65625 -7.664062 6.65625 -7.53125 L 6.65625 -6.234375 C 6.65625 -6.097656 6.625 -6 6.5625 -5.9375 C 6.5 -5.875 6.398438 -5.84375 6.265625 -5.84375 L 3.21875 -5.84375 L 3.21875 -5 L 5.375 -5 C 5.507812 -5 5.609375 -4.96875 5.671875 -4.90625 C 5.734375 -4.84375 5.765625 -4.738281 5.765625 -4.59375 L 5.765625 -3.421875 C 5.765625 -3.285156 5.734375 -3.1875 5.671875 -3.125 C 5.609375 -3.0625 5.507812 -3.03125 5.375 -3.03125 L 3.21875 -3.03125 L 3.21875 -2.078125 L 6.265625 -2.078125 C 6.398438 -2.078125 6.5 -2.046875 6.5625 -1.984375 C 6.625 -1.921875 6.65625 -1.820312 6.65625 -1.6875 L 6.65625 -0.390625 C 6.65625 -0.253906 6.625 -0.15625 6.5625 -0.09375 C 6.5 -0.03125 6.398438 0 6.265625 0 Z M 6.265625 0 "/></g></g></g><g fill="#ffffff" fill-opacity="1"><g transform="translate(107.015181, 28.996203)"><g><path d="M 3.25 -5.9375 L 3.25 -4.53125 L 4.0625 -4.53125 C 4.257812 -4.53125 4.390625 -4.578125 4.453125 -4.671875 C 4.515625 -4.773438 4.546875 -4.898438 4.546875 -5.046875 L 4.546875 -5.421875 C 4.546875 -5.566406 4.515625 -5.6875 4.453125 -5.78125 C 4.390625 -5.882812 4.257812 -5.9375 4.0625 -5.9375 Z M 2.84375 0 L 1.15625 0 C 1.019531 0 0.921875 -0.03125 0.859375 -0.09375 C 0.796875 -0.15625 0.765625 -0.253906 0.765625 -0.390625 L 0.765625 -7.53125 C 0.765625 -7.664062 0.796875 -7.765625 0.859375 -7.828125 C 0.921875 -7.890625 1.019531 -7.921875 1.15625 -7.921875 L 4.8125 -7.921875 C 5.632812 -7.921875 6.203125 -7.75 6.515625 -7.40625 C 6.828125 -7.0625 6.984375 -6.617188 6.984375 -6.078125 L 6.984375 -5.578125 C 6.984375 -5.265625 6.9375 -5 6.84375 -4.78125 C 6.75 -4.570312 6.59375 -4.421875 6.375 -4.328125 C 6.769531 -4.273438 7.085938 -4.109375 7.328125 -3.828125 C 7.578125 -3.554688 7.703125 -3.191406 7.703125 -2.734375 L 7.703125 -0.390625 C 7.703125 -0.253906 7.671875 -0.15625 7.609375 -0.09375 C 7.546875 -0.03125 7.441406 0 7.296875 0 L 5.59375 0 C 5.457031 0 5.359375 -0.03125 5.296875 -0.09375 C 5.234375 -0.15625 5.203125 -0.253906 5.203125 -0.390625 L 5.203125 -2.078125 C 5.203125 -2.242188 5.171875 -2.363281 5.109375 -2.4375 C 5.046875 -2.507812 4.9375 -2.546875 4.78125 -2.546875 L 3.25 -2.546875 L 3.25 -0.390625 C 3.25 -0.253906 3.21875 -0.15625 3.15625 -0.09375 C 3.09375 -0.03125 2.988281 0 2.84375 0 Z M 2.84375 0 "/></g></g></g><g fill="#ffffff" fill-opacity="1"><g transform="translate(115.182405, 28.996203)"><g><path d="M 4.4375 0 L 0.953125 0 C 0.816406 0 0.71875 -0.03125 0.65625 -0.09375 C 0.59375 -0.15625 0.5625 -0.253906 0.5625 -0.390625 L 0.5625 -1.6875 C 0.5625 -1.820312 0.59375 -1.921875 0.65625 -1.984375 C 0.71875 -2.046875 0.816406 -2.078125 0.953125 -2.078125 L 3.921875 -2.078125 C 4.015625 -2.078125 4.082031 -2.109375 4.125 -2.171875 C 4.175781 -2.234375 4.203125 -2.304688 4.203125 -2.390625 C 4.203125 -2.515625 4.175781 -2.609375 4.125 -2.671875 C 4.082031 -2.734375 4.015625 -2.765625 3.921875 -2.765625 L 2.265625 -3 C 1.753906 -3.070312 1.34375 -3.238281 1.03125 -3.5 C 0.71875 -3.769531 0.5625 -4.210938 0.5625 -4.828125 L 0.5625 -5.984375 C 0.5625 -6.609375 0.757812 -7.085938 1.15625 -7.421875 C 1.5625 -7.753906 2.125 -7.921875 2.84375 -7.921875 L 5.921875 -7.921875 C 6.054688 -7.921875 6.15625 -7.890625 6.21875 -7.828125 C 6.28125 -7.765625 6.3125 -7.664062 6.3125 -7.53125 L 6.3125 -6.21875 C 6.3125 -6.070312 6.28125 -5.96875 6.21875 -5.90625 C 6.15625 -5.84375 6.054688 -5.8125 5.921875 -5.8125 L 3.359375 -5.8125 C 3.265625 -5.8125 3.191406 -5.78125 3.140625 -5.71875 C 3.085938 -5.65625 3.0625 -5.578125 3.0625 -5.484375 C 3.0625 -5.390625 3.085938 -5.304688 3.140625 -5.234375 C 3.191406 -5.171875 3.265625 -5.140625 3.359375 -5.140625 L 5 -4.921875 C 5.507812 -4.847656 5.921875 -4.675781 6.234375 -4.40625 C 6.546875 -4.144531 6.703125 -3.707031 6.703125 -3.09375 L 6.703125 -1.9375 C 6.703125 -1.3125 6.5 -0.832031 6.09375 -0.5 C 5.6875 -0.164062 5.132812 0 4.4375 0 Z M 4.4375 0 "/></g></g></g></svg>