<svg xmlns="http://www.w3.org/2000/svg" xmlns:xlink="http://www.w3.org/1999/xlink" width="250" zoomAndPan="magnify" viewBox="0 0 187.5 187.499992" height="250" preserveAspectRatio="xMidYMid meet" version="1.0"><defs><g/><clipPath id="7e3d778897"><path d="M 3.921875 2.09375 L 184.285156 2.09375 L 184.285156 183.867188 L 3.921875 183.867188 Z M 3.921875 2.09375 " clip-rule="nonzero"/></clipPath><clipPath id="50f82b087c"><path d="M 94.101562 2.09375 C 44.296875 2.09375 3.921875 42.746094 3.921875 92.894531 C 3.921875 143.042969 44.296875 183.695312 94.101562 183.695312 C 143.910156 183.695312 184.285156 143.042969 184.285156 92.894531 C 184.285156 42.746094 143.910156 2.09375 94.101562 2.09375 Z M 94.101562 2.09375 " clip-rule="nonzero"/></clipPath><clipPath id="f49e3893db"><path d="M 0.921875 0.09375 L 181.285156 0.09375 L 181.285156 181.828125 L 0.921875 181.828125 Z M 0.921875 0.09375 " clip-rule="nonzero"/></clipPath><clipPath id="eae2bac9df"><path d="M 91.101562 0.09375 C 41.296875 0.09375 0.921875 40.746094 0.921875 90.894531 C 0.921875 141.042969 41.296875 181.695312 91.101562 181.695312 C 140.910156 181.695312 181.285156 141.042969 181.285156 90.894531 C 181.285156 40.746094 140.910156 0.09375 91.101562 0.09375 Z M 91.101562 0.09375 " clip-rule="nonzero"/></clipPath><clipPath id="194aa20bfb"><rect x="0" width="182" y="0" height="182"/></clipPath><clipPath id="3be6a743f9"><path d="M 3.921875 2.09375 L 184.191406 2.09375 L 184.191406 183.695312 L 3.921875 183.695312 Z M 3.921875 2.09375 " clip-rule="nonzero"/></clipPath><clipPath id="07518d8b0a"><path d="M 94.101562 2.09375 C 44.296875 2.09375 3.921875 42.746094 3.921875 92.894531 C 3.921875 143.042969 44.296875 183.695312 94.101562 183.695312 C 143.90625 183.695312 184.28125 143.042969 184.28125 92.894531 C 184.28125 42.746094 143.90625 2.09375 94.101562 2.09375 Z M 94.101562 2.09375 " clip-rule="nonzero"/></clipPath></defs><g clip-path="url(#7e3d778897)"><g clip-path="url(#50f82b087c)"><g transform="matrix(1, 0, 0, 1, 3, 2)"><g clip-path="url(#194aa20bfb)"><g clip-path="url(#f49e3893db)"><g clip-path="url(#eae2bac9df)"><path fill="#e60000" d="M 0.921875 0.09375 L 181.285156 0.09375 L 181.285156 181.867188 L 0.921875 181.867188 Z M 0.921875 0.09375 " fill-opacity="1" fill-rule="nonzero"/></g></g></g></g></g></g><g clip-path="url(#3be6a743f9)"><g clip-path="url(#07518d8b0a)"><path stroke-linecap="butt" transform="matrix(0.748005, 0, 0, 0.748005, 3.920398, 2.094064)" fill="none" stroke-linejoin="miter" d="M 120.562207 -0.000419597 C 53.978868 -0.000419597 0.00197462 54.347252 0.00197462 121.390146 C 0.00197462 188.433041 53.978868 242.780712 120.562207 242.780712 C 187.145546 242.780712 241.122439 188.433041 241.122439 121.390146 C 241.122439 54.347252 187.145546 -0.000419597 120.562207 -0.000419597 Z M 120.562207 -0.000419597 " stroke="#ffffff" stroke-width="4" stroke-opacity="1" stroke-miterlimit="4"/></g></g><g fill="#ffffff" fill-opacity="1"><g transform="translate(32.617754, 159.686426)"><g><path d="M 119.984375 -54.359375 C 120.628906 -56.753906 121.957031 -58.492188 123.96875 -59.578125 C 125.988281 -60.671875 128.140625 -61.21875 130.421875 -61.21875 C 132.921875 -61.21875 135.203125 -60.535156 137.265625 -59.171875 C 139.335938 -57.804688 140.375 -55.875 140.375 -53.375 C 140.375 -52.175781 140.160156 -50.925781 139.734375 -49.625 C 136.578125 -40.050781 132.628906 -31.507812 127.890625 -24 C 123.160156 -16.488281 117.609375 -10.609375 111.234375 -6.359375 C 104.867188 -2.117188 97.609375 0 89.453125 0 C 83.796875 0 78.625 -1.113281 73.9375 -3.34375 C 69.257812 -5.570312 65.503906 -8.753906 62.671875 -12.890625 C 59.847656 -17.023438 58.4375 -21.976562 58.4375 -27.75 C 58.4375 -31.664062 59.085938 -35.640625 60.390625 -39.671875 C 61.921875 -43.910156 63.226562 -47.550781 64.3125 -50.59375 C 65.40625 -53.644531 66.710938 -57.398438 68.234375 -61.859375 C 63.335938 -61.859375 58.628906 -61.832031 54.109375 -61.78125 C 49.597656 -61.726562 44.785156 -61.703125 39.671875 -61.703125 C 38.035156 -56.691406 36.179688 -51.164062 34.109375 -45.125 C 32.046875 -39.09375 29.976562 -33.054688 27.90625 -27.015625 C 25.84375 -20.972656 23.941406 -15.453125 22.203125 -10.453125 C 21.109375 -6.742188 19.28125 -4.070312 16.71875 -2.4375 C 14.164062 -0.8125 11.53125 0 8.8125 0 C 5.550781 0 2.613281 -1.03125 0 -3.09375 C -2.613281 -5.164062 -3.921875 -7.941406 -3.921875 -11.421875 C -3.921875 -13.054688 -3.59375 -14.742188 -2.9375 -16.484375 L 12.5625 -61.703125 L 8.65625 -61.703125 C 5.601562 -61.703125 3.148438 -62.757812 1.296875 -64.875 C -0.546875 -67 -1.46875 -69.316406 -1.46875 -71.828125 C -1.46875 -74.429688 -0.378906 -76.820312 1.796875 -79 C 3.972656 -81.175781 7.5625 -82.265625 12.5625 -82.265625 L 19.75 -82.265625 L 36.234375 -129.28125 C 37.429688 -133.519531 39.441406 -136.644531 42.265625 -138.65625 C 45.097656 -140.675781 47.929688 -141.6875 50.765625 -141.6875 C 53.703125 -141.6875 56.3125 -140.675781 58.59375 -138.65625 C 60.882812 -136.644531 62.03125 -133.738281 62.03125 -129.9375 C 62.03125 -127.757812 61.648438 -125.523438 60.890625 -123.234375 L 46.84375 -82.265625 L 75.09375 -82.265625 C 76.71875 -86.953125 78.425781 -92.097656 80.21875 -97.703125 C 82.019531 -103.304688 83.84375 -108.910156 85.6875 -114.515625 C 87.539062 -120.117188 89.285156 -125.257812 90.921875 -129.9375 C 92.441406 -134.070312 94.476562 -137.0625 97.03125 -138.90625 C 99.59375 -140.757812 102.234375 -141.6875 104.953125 -141.6875 C 108.109375 -141.6875 110.9375 -140.539062 113.4375 -138.25 C 115.945312 -135.96875 117.203125 -132.925781 117.203125 -129.125 C 117.203125 -127.488281 116.875 -125.582031 116.21875 -123.40625 L 86.34375 -35.578125 C 85.257812 -32.421875 84.71875 -29.703125 84.71875 -27.421875 C 84.71875 -25.023438 85.316406 -23.28125 86.515625 -22.1875 C 87.710938 -21.101562 89.34375 -20.5625 91.40625 -20.5625 C 96.738281 -20.5625 101.90625 -23.550781 106.90625 -29.53125 C 111.914062 -35.519531 116.273438 -43.796875 119.984375 -54.359375 Z M 119.984375 -54.359375 "/></g></g></g></svg>